<svg xmlns="http://www.w3.org/2000/svg" version="1.1" xmlns:xlink="http://www.w3.org/1999/xlink" width="234" height="234"><svg xmlns="http://www.w3.org/2000/svg" version="1.1" xmlns:xlink="http://www.w3.org/1999/xlink" width="234" height="234"><svg width="234" height="234" viewBox="0 0 234 234" fill="none" xmlns="http://www.w3.org/2000/svg">
<circle cx="117" cy="117" r="115.5" stroke="url(#paint0_linear_115_533)" stroke-width="5"></circle>
<path d="M135.164 20.0425C127.693 18.5588 122.381 9.2055 110.434 9.20386C101.36 9.77289 99.5391 15.9316 91.2748 18.4397C83.0105 20.9478 75.9833 14.2176 67.8408 19.1208C59.6982 24.0241 60.4117 32.4643 51.468 38.3939C42.5242 44.3236 35.7491 45.3491 31.5164 51.6216C27.2838 57.894 27.3178 69.7558 25.1577 77.6253C22.9975 85.4948 15.1862 85.7219 12.6948 98.2676C10.2034 110.813 20.1213 124.045 18.8756 130.318C17.6299 136.591 12.9443 145.144 14.3458 153.128C15.7473 161.112 26.4493 167.387 32.1005 175.029C37.7517 182.672 39.9629 192.595 45.4923 197.842C51.0218 203.09 59.2861 200.582 65.6167 204.803C71.9474 209.023 69.6654 214.498 77.8335 218.491C86.0016 222.484 91.0525 221.116 99.0989 222.714C107.145 224.312 111.865 227.62 122.663 227.393C133.461 227.167 140.681 220.895 145.497 217.702C150.313 214.509 160.667 219.529 169.845 215.424C179.024 211.319 180.958 204.59 185.652 199.002C190.346 193.414 199.542 195.24 205.839 187.599C212.135 179.959 208.296 163.192 212.18 155.665C216.065 148.138 223.746 142.55 225.558 133.426C227.37 124.302 222.285 113.808 221.58 108.333C220.875 102.858 224.297 94.6469 223.244 87.9175C222.191 81.1881 215.974 76.3969 211.245 70.1232C206.517 63.8495 207.859 51.0755 198.881 45.1434C189.903 39.2113 188.762 41.9485 181.056 38.6398C173.349 35.3312 169.875 25.75 159.983 21.4146C150.091 17.0791 142.636 21.5262 135.164 20.0425Z" stroke="url(#paint1_linear_115_533)" stroke-width="5"></path>
<path d="M116 33C109.5 33 103.5 26 93.5 28C86 30 85.5 35.5 79 39C72.5 42.5 65.5 38 59.5 43.5C53.5 49 55.5 56 49 62.5C42.5 69 37 71 34.5 77C32 83 34 93 33.5 100C33 107 26.5 108.5 26.5 119.5C26.5 130.5 37 140 37 145.5C37 151 34.5 159 37 165.5C39.5 172 49.5 175.5 55.5 181C61.5 186.5 65 194.5 70.5 198C76 201.5 82.5 198 88.5 200.5C94.5 203 93.5 208 101 210C108.5 212 112.5 210 119.5 210C126.5 210 131 212 140 210C149 208 154 201.5 157.5 198C161 194.5 170.5 197 177.5 192C184.5 187 185 181 188 175.5C191 170 199 170 203 162.5C207 155 201 141.5 203 134.5C205 127.5 210.5 121.5 210.5 113.5C210.5 105.5 204.5 97.5 203 93C201.5 88.5 203 81 201 75.5C199 70 193 67 188 62.5C183 58 182 47 173.5 43.5C165 40 164.5 42.5 157.5 41C150.5 39.5 146 32 137 30C128 28 122.5 33 116 33Z" stroke="url(#paint2_linear_115_533)" stroke-width="5"></path>
<path d="M133.222 52.0228C128.093 50.6914 124.779 43.9902 116.483 43.5053C110.159 43.5324 108.648 47.7295 102.809 49.1342C96.9698 50.5388 92.3596 45.5871 86.5091 48.6576C80.6585 51.7281 80.8161 57.6099 74.3681 61.3597C67.9201 65.1095 63.1743 65.5464 59.9841 69.7247C56.7938 73.903 56.3425 82.13 54.5274 87.4998C52.7123 92.8695 47.279 92.7106 45.0467 101.31C42.8144 109.909 49.1716 119.486 48.0554 123.786C46.9393 128.085 43.3431 133.827 43.9967 139.42C44.6502 145.014 52.3821 147.471 56.0004 153C59.6186 158.529 58.8708 165.637 62.5004 169.5C66.1299 173.363 71.7733 172.817 76.0004 176C80.2274 179.183 80.4883 182.4 86.0004 185.5C91.5124 188.6 96.4769 184.066 102 185.5C107.524 186.934 108.732 195.026 116.239 195.306C123.747 195.586 129.011 191.529 132.483 189.51C135.955 187.491 142.944 191.391 149.482 188.916C156.02 186.442 157.632 181.854 161.116 178.169C164.599 174.484 170.912 176.122 175.59 171.079C180.268 166.035 178.273 154.253 181.272 149.19C184.271 144.128 189.828 140.564 191.452 134.31C193.075 128.056 189.964 120.573 189.694 116.748C189.424 112.923 192.129 107.367 191.667 102.658C191.205 97.9488 187.08 94.3746 184.048 89.8326C181.016 85.2905 182.459 76.4866 176.462 72.0094C170.465 67.5322 169.564 69.3841 164.345 66.7776C159.126 64.1711 157.097 57.3863 150.401 53.9793C143.705 50.5723 138.351 53.3543 133.222 52.0228Z" stroke="url(#paint3_linear_115_533)" stroke-width="5"></path>
<ellipse cx="117.5" cy="119" rx="56" ry="47.5" stroke="url(#paint4_linear_115_533)" stroke-width="5"></ellipse>
<path d="M116.5 2.5V234" stroke="url(#paint5_linear_115_533)" stroke-width="5"></path>
<path d="M183.5 24C165.5 48.8333 129.4 102.5 129 118.5C128.6 134.5 158.167 192.167 173 219" stroke="url(#paint6_linear_115_533)" stroke-width="5"></path>
<path d="M226 77.5C199.167 85.5 145.5 105.7 145.5 122.5C145.5 139.3 195.5 160.167 220.5 168.5" stroke="url(#paint7_linear_115_533)" stroke-width="5"></path>
<path d="M56.5 20.5C72.5 47.3333 104.3 105.3 103.5 122.5C102.7 139.7 73.8333 194 59.5 219" stroke="url(#paint8_linear_115_533)" stroke-width="5"></path>
<path d="M13 68C38.8333 79.1667 90.2 104.6 89 117C87.8 129.4 34.5 148.167 8 156" stroke="url(#paint9_linear_115_533)" stroke-width="5"></path>
<defs>
<linearGradient id="paint0_linear_115_533" x1="117" y1="1.5" x2="117" y2="232.5" gradientUnits="userSpaceOnUse">
<stop stop-color="#9BC9F4"></stop>
<stop offset="1" stop-color="#88C9AA"></stop>
</linearGradient>
<linearGradient id="paint1_linear_115_533" x1="139.252" y1="14.5007" x2="97.7481" y2="223.499" gradientUnits="userSpaceOnUse">
<stop stop-color="#9BC9F4"></stop>
<stop offset="1" stop-color="#88C9AA"></stop>
</linearGradient>
<linearGradient id="paint2_linear_115_533" x1="118.5" y1="27.6406" x2="118.5" y2="210.889" gradientUnits="userSpaceOnUse">
<stop stop-color="#9BC9F4"></stop>
<stop offset="1" stop-color="#88C9AA"></stop>
</linearGradient>
<linearGradient id="paint3_linear_115_533" x1="136.282" y1="48.3453" x2="99.2174" y2="191.122" gradientUnits="userSpaceOnUse">
<stop stop-color="#9BC9F4"></stop>
<stop offset="1" stop-color="#88C9AA"></stop>
</linearGradient>
<linearGradient id="paint4_linear_115_533" x1="117.5" y1="71.5" x2="117.5" y2="166.5" gradientUnits="userSpaceOnUse">
<stop stop-color="#9BC9F4"></stop>
<stop offset="1" stop-color="#88C9AA"></stop>
</linearGradient>
<linearGradient id="paint5_linear_115_533" x1="117" y1="2.5" x2="117" y2="234" gradientUnits="userSpaceOnUse">
<stop stop-color="#9BC9F4"></stop>
<stop offset="1" stop-color="#88C9AA"></stop>
</linearGradient>
<linearGradient id="paint6_linear_115_533" x1="156.248" y1="24" x2="156.248" y2="219" gradientUnits="userSpaceOnUse">
<stop stop-color="#9BC9F4"></stop>
<stop offset="1" stop-color="#88C9AA"></stop>
</linearGradient>
<linearGradient id="paint7_linear_115_533" x1="185.75" y1="77.5" x2="185.75" y2="168.5" gradientUnits="userSpaceOnUse">
<stop stop-color="#9BC9F4"></stop>
<stop offset="1" stop-color="#88C9AA"></stop>
</linearGradient>
<linearGradient id="paint8_linear_115_533" x1="80.0074" y1="20.5" x2="80.0074" y2="219" gradientUnits="userSpaceOnUse">
<stop stop-color="#9BC9F4"></stop>
<stop offset="1" stop-color="#88C9AA"></stop>
</linearGradient>
<linearGradient id="paint9_linear_115_533" x1="48.5103" y1="68" x2="48.5103" y2="156" gradientUnits="userSpaceOnUse">
<stop stop-color="#9BC9F4"></stop>
<stop offset="1" stop-color="#88C9AA"></stop>
</linearGradient>
</defs>
</svg></svg><style>@media (prefers-color-scheme: light) { :root { filter: none; } }
@media (prefers-color-scheme: dark) { :root { filter: none; } }
</style></svg>